HIERARCHY
ROOT Hips
{
	OFFSET -3.958830 18.904000 13.208200
	CHANNELS 6 Xposition Yposition Zposition Zrotation Yrotation Xrotation 
	JOINT LHipJoint
	{
		OFFSET 0.000000 0.000000 0.000000
		CHANNELS 3 Zrotation Yrotation Xrotation
		JOINT LeftUpLeg
		{
			OFFSET 1.800000 -1.400000 0.085000
			CHANNELS 3 Zrotation Yrotation Xrotation
			JOINT LeftLeg
			{
				OFFSET 2.215000 -6.000000 0.000000
				CHANNELS 3 Zrotation Yrotation Xrotation
				JOINT LeftFoot
				{
					OFFSET 2.500000 -6.900000 0.000000
					CHANNELS 3 Zrotation Yrotation Xrotation
					JOINT LeftToeBase
					{
						OFFSET 0.200000 -0.500000 1.950000
						CHANNELS 3 Zrotation Yrotation Xrotation
						End Site
						{
							OFFSET 0.000000 0.000000 0.000000
						}
					}
				}
			}
		}
	}
	JOINT RHipJoint
	{
		OFFSET 0.000000 0.000000 0.000000
		CHANNELS 3 Zrotation Yrotation Xrotation
		JOINT RightUpLeg
		{
			OFFSET -1.800000 -1.400000 0.085000
			CHANNELS 3 Zrotation Yrotation Xrotation
			JOINT RightLeg
			{
				OFFSET -2.215000 -6.000000 0.000000
				CHANNELS 3 Zrotation Yrotation Xrotation
				JOINT RightFoot
				{
					OFFSET -2.500000 -6.900000 0.000000
					CHANNELS 3 Zrotation Yrotation Xrotation
					JOINT RightToeBase
					{
						OFFSET -0.200000 -0.500000 1.950000
						CHANNELS 3 Zrotation Yrotation Xrotation
						End Site
						{
							OFFSET 0.000000 0.000000 0.000000
						}
					}
				}
			}
		}
	}
	JOINT LowerBack
	{
		OFFSET 0.000000 0.000000 0.000000
		CHANNELS 3 Zrotation Yrotation Xrotation
		JOINT Spine
		{
			OFFSET -0.087000 1.940000 -0.288900
			CHANNELS 3 Zrotation Yrotation Xrotation
			JOINT Spine1
			{
				OFFSET 0.000000 1.950000 0.060000
				CHANNELS 3 Zrotation Yrotation Xrotation
				JOINT Neck
				{
					OFFSET 0.000000 0.000000 0.000000
					CHANNELS 3 Zrotation Yrotation Xrotation
					JOINT Neck1
					{
						OFFSET 0.000000 1.600000 0.340000
						CHANNELS 3 Zrotation Yrotation Xrotation
						JOINT Head
						{
							OFFSET 0.000000 1.667000 -0.240000
							CHANNELS 3 Zrotation Yrotation Xrotation
							End Site
							{
								OFFSET 0.000000 0.000000 0.000000
							}
						}
					}
				}
				JOINT LeftShoulder
				{
					OFFSET 0.000000 0.000000 0.000000
					CHANNELS 3 Zrotation Yrotation Xrotation
					JOINT LeftArm
					{
						OFFSET 2.700000 1.550000 -0.730000
						CHANNELS 3 Zrotation Yrotation Xrotation
						JOINT LeftForeArm
						{
							OFFSET 5.450000 0.000000 0.000000
							CHANNELS 3 Zrotation Yrotation Xrotation
							JOINT LeftHand
							{
								OFFSET 3.450000 0.000000 0.000000
								CHANNELS 3 Zrotation Yrotation Xrotation
								JOINT LeftHandIndex1
								{
									OFFSET 0.750000 0.000000 0.000000
									CHANNELS 3 Zrotation Yrotation Xrotation
									End Site
									{
										OFFSET 0.000000 0.000000 0.000000
									}
								}
							}
						}
					}
				}
				JOINT RightShoulder
				{
					OFFSET 0.000000 0.000000 0.000000
					CHANNELS 3 Zrotation Yrotation Xrotation
					JOINT RightArm
					{
						OFFSET -2.700000 1.550000 -0.730000
						CHANNELS 3 Zrotation Yrotation Xrotation
						JOINT RightForeArm
						{
							OFFSET -5.450000 0.000000 0.000000
							CHANNELS 3 Zrotation Yrotation Xrotation
							JOINT RightHand
							{
								OFFSET -3.450000 0.000000 0.000000
								CHANNELS 3 Zrotation Yrotation Xrotation
								JOINT RightHandIndex1
								{
									OFFSET -0.750000 0.000000 0.000000
									CHANNELS 3 Zrotation Yrotation Xrotation
									End Site
									{
										OFFSET 0.000000 0.000000 0.000000
									}
								}
							}
						}
					}
				}
			}
		}
	}
}
MOTION
Frames: 8
Frame Time: 0.016667
-2.125940 16.900600 2.577840 -1.125028 59.425231 -7.128839 -15.508033 12.474017 3.215012 -1.249090 -5.338105 -20.300441 2.824139 6.649624 43.939198 0.368726 6.813668 2.030190 0.406070 0.363250 0.266780 17.883539 -11.527921 3.251212 -1.392447 6.761670 -22.367630 -2.012565 -8.991033 61.394093 -1.383918 -8.991071 1.171935 0.241200 -0.123410 0.067060 -5.572989 1.505375 -8.233079 14.235366 -6.248988 27.417760 -22.596907 -0.161459 11.334082 11.605358 8.833776 -12.660622 17.516140 -12.265909 41.035387 5.297300 -11.989950 -12.407480 -33.721124 -23.653396 12.414649 -30.676808 0.857077 -3.781651 -1.116386 -10.282207 -0.633020 -3.262070 3.265849 0.220660 -0.150000 0.151010 0.074000 9.950844 22.881322 0.889646 3.302103 29.424501 -6.876813 -3.895525 79.735816 -2.969288 2.182044 -1.700487 0.047310 0.101130 -0.124270 -0.031190 
-2.237380 16.776250 2.583950 -0.213166 59.432886 -6.809244 -15.508185 12.370084 3.444675 -0.000601 -5.993407 -22.529377 1.070006 8.293153 47.272550 0.507681 7.617193 1.738283 0.411620 0.361770 0.295580 17.880171 -11.514399 3.160808 -1.174482 6.880195 -20.059822 -3.673021 -8.696143 65.114032 -1.566061 -9.534887 1.023452 0.232730 -0.156410 0.056290 -5.454048 1.496736 -8.363749 12.728231 -4.223988 28.642362 -21.133521 1.417299 10.027986 10.271837 9.331535 -13.903547 18.380091 -12.912978 42.355403 5.789160 -12.059930 -12.889910 -35.963698 -25.325749 12.933854 -29.261373 0.802066 -3.402806 -0.295349 -9.158513 -0.603760 -3.235713 3.221304 0.264240 -0.180700 0.182650 0.061030 14.310877 25.637132 1.324221 8.964688 31.923810 -3.969371 25.752481 77.511781 18.637602 2.252556 -1.868673 0.041310 0.108930 -0.129810 -0.049780 
-2.324720 16.675160 2.607400 0.889460 59.639724 -6.346403 -15.502186 12.270350 3.602839 1.401370 -6.376742 -23.383495 -1.357324 9.931805 48.526026 0.555695 8.127285 1.527212 0.457300 0.405360 0.374930 17.871233 -11.614597 3.028929 -1.494021 6.500523 -17.424360 -4.854657 -8.896443 68.455943 -1.762542 -10.075926 0.859230 0.258980 -0.221660 0.059010 -5.423077 1.685286 -8.397307 10.607836 -2.307084 28.726559 -20.121232 2.679679 9.471897 9.189444 10.541420 -14.878684 21.796444 -13.833304 43.759176 5.463600 -10.624260 -13.385950 -38.091441 -25.525080 12.749942 -26.759501 0.523667 -3.847508 0.887417 -9.939836 -0.674501 -3.210250 3.213324 0.323750 -0.207970 0.237830 0.036840 18.392982 25.535962 2.542510 18.453111 34.049800 -0.834051 38.910987 71.625473 25.539645 2.221399 -1.806560 0.038360 0.104350 -0.148790 -0.096050 
-2.376230 16.574950 2.623010 2.177106 59.368876 -4.714734 -15.481714 12.110962 3.887475 2.566358 -7.088252 -24.964822 -4.208238 11.768220 49.647189 0.663223 8.686922 1.315708 0.467610 0.406850 0.414740 17.882711 -11.712739 2.828314 -2.474623 5.777295 -15.428891 -6.506029 -8.629382 70.753892 -1.878340 -10.400637 0.765260 0.249230 -0.267340 0.056230 -5.258105 1.722935 -8.471391 8.684004 -0.203435 27.511671 -18.250882 4.099793 7.936679 7.720555 10.797239 -15.558934 22.877801 -14.609696 45.936572 5.617560 -10.078540 -12.726740 -38.991940 -25.260466 11.856764 -26.742590 -0.096992 -4.683455 1.011477 -12.182079 -0.752721 -3.192913 3.209003 0.361760 -0.233050 0.272370 0.017710 22.050897 25.249213 4.374599 27.388094 33.745687 1.690229 42.748814 61.492674 23.103938 2.275902 -1.640960 0.041560 0.088690 -0.158740 -0.122020 
-2.416770 16.481020 2.621180 2.826934 59.406268 -3.247406 -15.475040 11.959932 4.212934 3.921374 -8.003191 -26.873340 -6.767322 13.293160 50.465588 0.776419 9.186772 1.146373 0.450310 0.377240 0.420330 17.890158 -11.779756 2.612984 -3.132990 4.761871 -14.193049 -9.105505 -7.704269 72.995663 -1.965964 -10.677342 0.699365 0.221340 -0.285620 0.048850 -5.085585 1.629497 -8.569812 7.748240 1.247343 26.017267 -16.044230 5.024474 6.096358 6.235181 10.243053 -15.481234 21.175103 -14.567846 47.928947 5.197650 -9.923430 -11.571740 -39.622573 -24.841303 10.697400 -27.648230 -1.254276 -5.570052 0.504062 -15.278429 -0.795954 -3.190076 3.203783 0.374790 -0.243540 0.279180 0.007140 25.636331 24.907195 5.972535 35.307344 31.107027 2.513339 42.462535 52.981800 18.500292 2.351185 -1.566383 0.040990 0.075920 -0.158620 -0.132850 
-2.456510 16.396710 2.631130 3.796584 59.185858 -1.357948 -15.473972 11.801320 4.546520 5.094227 -8.985123 -28.763457 -9.059273 14.620004 51.130360 0.895488 9.661474 1.006133 0.427570 0.344190 0.397220 17.908366 -11.867868 2.347569 -3.545062 3.413804 -13.074697 -12.980193 -5.577685 74.693921 -2.020456 -10.891259 0.659970 0.201910 -0.263170 0.044980 -4.865108 1.486936 -8.622311 6.545770 2.535520 23.435022 -13.528447 5.693305 5.094165 5.076793 8.895500 -14.299797 17.236501 -13.192632 49.305125 4.489840 -9.688060 -9.918970 -39.001515 -23.781482 8.999980 -29.354481 -4.140448 -5.623557 0.574651 -17.285849 -0.846639 -3.266806 3.155674 0.349170 -0.226350 0.250320 0.013170 27.725745 24.086065 6.850092 42.927108 28.276325 2.826177 40.493132 46.625566 14.411282 2.405424 -1.562805 0.038590 0.067770 -0.152250 -0.124650 
-2.511410 16.350930 2.640960 4.347156 58.741403 -0.287148 -15.491409 11.752403 4.800884 6.135457 -9.715196 -30.056726 -10.955688 15.501179 51.008367 0.959379 9.928838 0.933123 0.406960 0.317500 0.382670 17.899156 -11.935779 2.081793 -4.679903 2.065036 -11.748260 -15.611512 -4.309882 75.586069 -2.064463 -11.073044 0.626882 0.188750 -0.239190 0.044390 -4.626945 1.242057 -8.606045 5.346037 3.506602 21.684575 -11.062117 6.135147 3.750080 3.980743 7.842048 -12.736314 13.963694 -11.648691 49.715935 3.734200 -8.651900 -8.669250 -39.160647 -22.246474 7.164327 -29.496279 -6.788423 -5.852264 0.203060 -20.445926 -0.818703 -3.328573 3.125329 0.330840 -0.202080 0.227240 0.017710 30.439110 22.433088 7.260996 48.672904 23.592795 1.247025 35.973480 40.443173 9.981168 2.421966 -1.557881 0.029490 0.064960 -0.146090 -0.124750 
-2.565660 16.362610 2.642420 5.069615 57.890649 0.539235 -15.508438 11.849464 4.944444 6.303247 -10.205337 -30.541131 -11.433255 15.487160 50.702794 0.969142 9.913904 0.942164 0.382130 0.287050 0.358990 17.870762 -12.042928 1.830058 -6.184199 0.741301 -10.138719 -18.176979 -2.812635 75.211960 -2.072911 -11.091602 0.635396 0.165980 -0.221650 0.040160 -4.417513 0.880522 -8.535584 4.515502 4.155484 20.253493 -8.882175 6.464792 2.737449 2.883914 6.106584 -11.346744 9.170778 -9.674802 51.115418 3.838360 -8.084620 -7.856660 -38.120533 -20.435270 5.143398 -30.188190 -9.365750 -6.283224 0.470059 -25.811844 -0.885718 -3.367344 3.080261 0.327870 -0.197730 0.214850 0.018040 31.902191 20.810898 7.814424 51.953488 17.210517 -1.923378 33.723068 36.649549 7.396950 2.434038 -1.542921 0.024530 0.064260 -0.133900 -0.118870 
